ffmpeg started on 2016-12-07 at 13:16:56
Report written to "Output/x264/results/ffmpeg/sintelslow9000k.log"
Command line:
Tools/ffmpeg/ffmpeg -benchmark -y -i Input/y4m/sintel.y4m -c:v libx264 -preset slow -b:v 9000k -an Output/x264/encoded/sintelslow9000k.mkv
ffmpeg version N-82227-gdb23fde Copyright (c) 2000-2016 the FFmpeg developers
  built with gcc 5.4.0 (Ubuntu 5.4.0-6ubuntu1~16.04.2) 20160609
  configuration: --prefix=/home/jaroslav/ffmpeg_build --pkg-config-flags=--static --extra-cflags=-I/home/jaroslav/ffmpeg_build/include --extra-ldflags=-L/home/jaroslav/ffmpeg_build/lib --bindir=/home/jaroslav/bin --enable-gpl --enable-libass --enable-libfdk-aac --enable-libfreetype --enable-libmp3lame --enable-libopus --enable-libtheora --enable-libvorbis --enable-libvpx --enable-libx264 --enable-libx265 --enable-nvenc --enable-libmfx --enable-libxvid --enable-libgsm --enable-libopencore-amrnb --enable-version3 --enable-nonfree
  libavutil      55. 35.100 / 55. 35.100
  libavcodec     57. 66.101 / 57. 66.101
  libavformat    57. 57.100 / 57. 57.100
  libavdevice    57.  2.100 / 57.  2.100
  libavfilter     6. 66.100 /  6. 66.100
  libswscale      4.  3.100 /  4.  3.100
  libswresample   2.  4.100 /  2.  4.100
  libpostproc    54.  2.100 / 54.  2.100
Input #0, yuv4mpegpipe, from 'Input/y4m/sintel.y4m':
  Duration: 00:00:20.83, start: 0.000000, bitrate: 2057307 kb/s
    Stream #0:0: Video: rawvideo (I420 / 0x30323449), yuv420p(progressive), 4096x1744, SAR 1:1 DAR 256:109, 24 fps, 24 tbr, 24 tbn, 24 tbc
[libx264 @ 0x40cc120] using SAR=1/1
[libx264 @ 0x40cc120] using cpu capabilities: MMX2 SSE2Fast SSSE3 SSE4.2 AVX FMA3 AVX2 LZCNT BMI2
[libx264 @ 0x40cc120] profile High, level 5.1
[libx264 @ 0x40cc120] 264 - core 148 - H.264/MPEG-4 AVC codec - Copyleft 2003-2016 - http://www.videolan.org/x264.html - options: cabac=1 ref=5 deblock=1:0:0 analyse=0x3:0x113 me=hex subme=8 psy=1 psy_rd=1.00:0.00 mixed_ref=1 me_range=16 chroma_me=1 trellis=2 8x8dct=1 cqm=0 deadzone=21,11 fast_pskip=1 chroma_qp_offset=-2 threads=6 lookahead_threads=1 sliced_threads=0 nr=0 decimate=1 interlaced=0 bluray_compat=0 constrained_intra=0 bframes=3 b_pyramid=2 b_adapt=1 b_bias=0 direct=3 weightb=1 open_gop=0 weightp=2 keyint=250 keyint_min=24 scenecut=40 intra_refresh=0 rc_lookahead=50 rc=abr mbtree=1 bitrate=9000 ratetol=1.0 qcomp=0.60 qpmin=0 qpmax=69 qpstep=4 ip_ratio=1.40 aq=1:1.00
Output #0, matroska, to 'Output/x264/encoded/sintelslow9000k.mkv':
  Metadata:
    encoder         : Lavf57.57.100
    Stream #0:0: Video: h264 (libx264) (H264 / 0x34363248), yuv420p, 4096x1744 [SAR 1:1 DAR 256:109], q=-1--1, 9000 kb/s, 24 fps, 1k tbn, 24 tbc
    Metadata:
      encoder         : Lavc57.66.101 libx264
    Side data:
      cpb: bitrate max/min/avg: 0/0/9000000 buffer size: 0 vbv_delay: -1
Stream mapping:
  Stream #0:0 -> #0:0 (rawvideo (native) -> h264 (libx264))
Press [q] to stop, [?] for help
frame=   10 fps=0.0 q=0.0 size=       0kB time=00:00:00.00 bitrate=N/A speed=   0x    frame=   19 fps= 18 q=0.0 size=       0kB time=00:00:00.00 bitrate=N/A speed=   0x    frame=   28 fps= 18 q=0.0 size=       0kB time=00:00:00.00 bitrate=N/A speed=   0x    frame=   37 fps= 17 q=0.0 size=       0kB time=00:00:00.00 bitrate=N/A speed=   0x    frame=   46 fps= 17 q=0.0 size=       0kB time=00:00:00.00 bitrate=N/A speed=   0x    frame=   55 fps= 17 q=0.0 size=       0kB time=00:00:00.00 bitrate=N/A speed=   0x    frame=   57 fps=9.4 q=0.0 size=       0kB time=00:00:00.00 bitrate=N/A speed=   0x    frame=   58 fps=6.3 q=0.0 size=       0kB time=00:00:00.00 bitrate=N/A speed=   0x    frame=   59 fps=5.9 q=0.0 size=       0kB time=00:00:00.00 bitrate=N/A speed=   0x    frame=   63 fps=5.8 q=26.0 size=       1kB time=00:00:00.00 bitrate=5872.0kbits/s speed=9.27e-05x    frame=   64 fps=5.7 q=35.0 size=       1kB time=00:00:00.04 bitrate= 136.6kbits/s speed=0.0038x    frame=   67 fps=5.6 q=43.0 size=       1kB time=00:00:00.16 bitrate=  35.0kbits/s speed=0.0141x    frame=   68 fps=5.5 q=44.0 size=       1kB time=00:00:00.20 bitrate=  28.1kbits/s speed=0.0168x    frame=   71 fps=5.4 q=44.0 size=       1kB time=00:00:00.33 bitrate=  17.6kbits/s speed=0.0253x    frame=   75 fps=5.4 q=43.0 size=       1kB time=00:00:00.50 bitrate=  11.7kbits/s speed=0.0364x    frame=   78 fps=5.4 q=43.0 size=       1kB time=00:00:00.62 bitrate=   9.4kbits/s speed=0.0437x    frame=   82 fps=5.5 q=43.0 size=       1kB time=00:00:00.79 bitrate=   7.4kbits/s speed=0.0534x    frame=   85 fps=5.5 q=42.0 size=       1kB time=00:00:00.91 bitrate=   6.4kbits/s speed=0.0591x    frame=   90 fps=5.6 q=41.0 size=       1kB time=00:00:01.12 bitrate=   5.2kbits/s speed=0.0701x    frame=   92 fps=5.6 q=41.0 size=       1kB time=00:00:01.20 bitrate=   4.9kbits/s speed=0.0729x    frame=   95 fps=5.5 q=41.0 size=       1kB time=00:00:01.33 bitrate=   4.4kbits/s speed=0.0774x    frame=   98 fps=5.5 q=41.0 size=       1kB time=00:00:01.45 bitrate=   4.0kbits/s speed=0.0822x    frame=  101 fps=5.5 q=40.0 size=       1kB time=00:00:01.58 bitrate=   3.7kbits/s speed=0.0864x    frame=  105 fps=5.6 q=40.0 size=       1kB time=00:00:01.75 bitrate=   3.4kbits/s speed=0.0929x    frame=  109 fps=5.5 q=40.0 size=       1kB time=00:00:01.91 bitrate=   3.1kbits/s speed=0.0976x    frame=  113 fps=5.5 q=39.0 size=       1kB time=00:00:02.08 bitrate=   2.8kbits/s speed=0.102x    frame=  116 fps=5.5 q=39.0 size=       1kB time=00:00:02.20 bitrate=   2.7kbits/s speed=0.105x    frame=  118 fps=5.5 q=39.0 size=       1kB time=00:00:02.29 bitrate=   2.6kbits/s speed=0.106x    frame=  121 fps=5.4 q=39.0 size=       1kB time=00:00:02.41 bitrate=   2.4kbits/s speed=0.109x    frame=  124 fps=5.4 q=39.0 size=       1kB time=00:00:02.54 bitrate=   2.3kbits/s speed=0.112x    frame=  127 fps=5.4 q=39.0 size=       1kB time=00:00:02.66 bitrate=   2.2kbits/s speed=0.113x    frame=  131 fps=5.4 q=39.0 size=       1kB time=00:00:02.83 bitrate=   2.1kbits/s speed=0.117x    frame=  133 fps=5.3 q=39.0 size=       1kB time=00:00:02.91 bitrate=   2.0kbits/s speed=0.117x    frame=  137 fps=5.3 q=38.0 size=       1kB time=00:00:03.08 bitrate=   1.9kbits/s speed=0.12x    frame=  140 fps=5.3 q=38.0 size=       1kB time=00:00:03.20 bitrate=   1.8kbits/s speed=0.121x    frame=  143 fps=5.3 q=38.0 size=       1kB time=00:00:03.33 bitrate=   1.8kbits/s speed=0.123x    frame=  146 fps=5.2 q=38.0 size=       1kB time=00:00:03.45 bitrate=   1.7kbits/s speed=0.124x    frame=  149 fps=5.3 q=38.0 size=       1kB time=00:00:03.58 bitrate=   1.6kbits/s speed=0.126x    frame=  151 fps=5.2 q=38.0 size=       1kB time=00:00:03.66 bitrate=   1.6kbits/s speed=0.127x    frame=  155 fps=5.3 q=38.0 size=       1kB time=00:00:03.83 bitrate=   1.5kbits/s speed=0.13x    frame=  158 fps=5.3 q=38.0 size=    4849kB time=00:00:03.95 bitrate=10034.0kbits/s speed=0.132x    frame=  162 fps=5.3 q=38.0 size=    4849kB time=00:00:04.12 bitrate=9627.9kbits/s speed=0.135x    frame=  163 fps=5.2 q=37.0 size=    4849kB time=00:00:04.16 bitrate=9530.9kbits/s speed=0.134x    frame=  169 fps=5.3 q=37.0 size=    4849kB time=00:00:04.41 bitrate=8991.6kbits/s speed=0.14x    frame=  172 fps=5.3 q=37.0 size=    4849kB time=00:00:04.54 bitrate=8744.2kbits/s speed=0.141x    frame=  175 fps=5.3 q=37.0 size=    4849kB time=00:00:04.66 bitrate=8510.0kbits/s speed=0.142x    frame=  180 fps=5.4 q=37.0 size=    4849kB time=00:00:04.87 bitrate=8147.0kbits/s speed=0.146x    frame=  181 fps=5.3 q=37.0 size=    4849kB time=00:00:04.91 bitrate=8077.4kbits/s speed=0.144x    frame=  186 fps=5.4 q=37.0 size=    4849kB time=00:00:05.12 bitrate=7749.7kbits/s speed=0.148x    frame=  188 fps=5.3 q=37.0 size=    4849kB time=00:00:05.20 bitrate=7626.2kbits/s speed=0.147x    frame=  191 fps=5.3 q=37.0 size=    4849kB time=00:00:05.33 bitrate=7447.5kbits/s speed=0.149x    frame=  194 fps=5.3 q=37.0 size=    4849kB time=00:00:05.45 bitrate=7276.9kbits/s speed=0.149x    frame=  198 fps=5.3 q=37.0 size=    4849kB time=00:00:05.62 bitrate=7060.9kbits/s speed=0.151x    frame=  202 fps=5.3 q=37.0 size=    4849kB time=00:00:05.79 bitrate=6857.4kbits/s speed=0.153x    frame=  205 fps=5.3 q=37.0 size=    4849kB time=00:00:05.91 bitrate=6712.5kbits/s speed=0.153x    frame=  209 fps=5.3 q=37.0 size=    4849kB time=00:00:06.08 bitrate=6529.4kbits/s speed=0.155x    frame=  212 fps=5.3 q=34.0 size=    4849kB time=00:00:06.20 bitrate=6397.9kbits/s speed=0.155x    frame=  220 fps=5.4 q=36.0 size=    7146kB time=00:00:06.54 bitrate=8946.4kbits/s speed=0.161x    frame=  222 fps=5.4 q=36.0 size=    7146kB time=00:00:06.62 bitrate=8834.3kbits/s speed=0.161x    frame=  225 fps=5.4 q=36.0 size=    7146kB time=00:00:06.75 bitrate=8670.7kbits/s speed=0.161x    frame=  228 fps=5.4 q=36.0 size=    7146kB time=00:00:06.87 bitrate=8513.1kbits/s speed=0.162x    frame=  231 fps=5.4 q=36.0 size=    7146kB time=00:00:07.00 bitrate=8361.1kbits/s speed=0.163x    frame=  235 fps=5.4 q=36.0 size=    7146kB time=00:00:07.16 bitrate=8166.3kbits/s speed=0.164x    frame=  239 fps=5.4 q=33.0 size=    7146kB time=00:00:07.33 bitrate=7981.5kbits/s speed=0.165x    frame=  240 fps=5.4 q=36.0 size=    7146kB time=00:00:07.37 bitrate=7936.0kbits/s speed=0.165x    frame=  244 fps=5.4 q=36.0 size=    8151kB time=00:00:07.54 bitrate=8852.3kbits/s speed=0.166x    frame=  250 fps=5.4 q=36.0 size=    8151kB time=00:00:07.79 bitrate=8568.3kbits/s speed=0.169x    frame=  256 fps=5.4 q=35.0 size=    8151kB time=00:00:08.04 bitrate=8302.0kbits/s speed=0.171x    frame=  259 fps=5.4 q=35.0 size=    8151kB time=00:00:08.16 bitrate=8175.0kbits/s speed=0.172x    frame=  262 fps=5.4 q=35.0 size=    8151kB time=00:00:08.29 bitrate=8051.7kbits/s speed=0.172x    frame=  265 fps=5.4 q=35.0 size=    8151kB time=00:00:08.41 bitrate=7932.2kbits/s speed=0.173x    frame=  269 fps=5.4 q=35.0 size=    8151kB time=00:00:08.58 bitrate=7778.8kbits/s speed=0.173x    frame=  274 fps=5.5 q=35.0 size=    8151kB time=00:00:08.79 bitrate=7593.9kbits/s speed=0.175x    frame=  276 fps=5.4 q=35.0 size=    8151kB time=00:00:08.87 bitrate=7522.9kbits/s speed=0.175x    frame=  282 fps=5.5 q=35.0 size=    8151kB time=00:00:09.12 bitrate=7316.8kbits/s speed=0.177x    frame=  285 fps=5.5 q=35.0 size=    8151kB time=00:00:09.25 bitrate=7217.9kbits/s speed=0.177x    frame=  292 fps=5.5 q=35.0 size=    8151kB time=00:00:09.54 bitrate=6997.1kbits/s speed=0.181x    frame=  294 fps=5.5 q=35.0 size=    8151kB time=00:00:09.62 bitrate=6936.7kbits/s speed=0.179x    frame=  300 fps=5.5 q=34.0 size=    8151kB time=00:00:09.87 bitrate=6761.2kbits/s speed=0.182x    frame=  302 fps=5.5 q=34.0 size=    8151kB time=00:00:09.95 bitrate=6704.8kbits/s speed=0.182x    frame=  307 fps=5.5 q=34.0 size=    8151kB time=00:00:10.16 bitrate=6567.0kbits/s speed=0.183x    frame=  311 fps=5.5 q=34.0 size=    8151kB time=00:00:10.33 bitrate=6461.5kbits/s speed=0.184x    frame=  313 fps=5.5 q=34.0 size=    8151kB time=00:00:10.41 bitrate=6409.4kbits/s speed=0.184x    frame=  320 fps=5.6 q=34.0 size=    8151kB time=00:00:10.70 bitrate=6235.2kbits/s speed=0.187x    frame=  322 fps=5.5 q=34.0 size=    8151kB time=00:00:10.79 bitrate=6186.7kbits/s speed=0.186x    frame=  328 fps=5.6 q=34.0 size=   11025kB time=00:00:11.04 bitrate=8178.4kbits/s speed=0.188x    frame=  332 fps=5.6 q=34.0 size=   11025kB time=00:00:11.20 bitrate=8057.2kbits/s speed=0.189x    frame=  339 fps=5.7 q=33.0 size=   11025kB time=00:00:11.50 bitrate=7852.7kbits/s speed=0.193x    frame=  341 fps=5.7 q=33.0 size=   11025kB time=00:00:11.58 bitrate=7796.4kbits/s speed=0.192x    frame=  344 fps=5.7 q=33.0 size=   11025kB time=00:00:11.70 bitrate=7713.2kbits/s speed=0.193x    frame=  349 fps=5.7 q=33.0 size=   11025kB time=00:00:11.91 bitrate=7577.9kbits/s speed=0.194x    frame=  355 fps=5.7 q=33.0 size=   11025kB time=00:00:12.16 bitrate=7422.2kbits/s speed=0.197x    frame=  358 fps=5.7 q=33.0 size=   11025kB time=00:00:12.29 bitrate=7346.8kbits/s speed=0.197x    frame=  364 fps=5.8 q=33.0 size=   11025kB time=00:00:12.54 bitrate=7200.3kbits/s speed=0.199x    frame=  372 fps=5.8 q=33.0 size=   11025kB time=00:00:12.87 bitrate=7014.1kbits/s speed=0.201x    frame=  378 fps=5.9 q=32.0 size=   11025kB time=00:00:13.12 bitrate=6880.5kbits/s speed=0.204x    frame=  384 fps=5.9 q=32.0 size=   11025kB time=00:00:13.37 bitrate=6751.9kbits/s speed=0.205x    frame=  391 fps=5.9 q=32.0 size=   11025kB time=00:00:13.66 bitrate=6607.7kbits/s speed=0.208x    frame=  396 fps=5.9 q=32.0 size=   11025kB time=00:00:13.87 bitrate=6508.6kbits/s speed=0.208x    frame=  401 fps=6.0 q=31.0 size=   11025kB time=00:00:14.08 bitrate=6412.5kbits/s speed=0.21x    frame=  408 fps=6.0 q=31.0 size=   11025kB time=00:00:14.37 bitrate=6282.3kbits/s speed=0.211x    frame=  414 fps=6.0 q=31.0 size=   11025kB time=00:00:14.62 bitrate=6174.9kbits/s speed=0.214x    frame=  418 fps=6.1 q=29.0 size=   11025kB time=00:00:14.79 bitrate=6105.2kbits/s speed=0.214x    frame=  424 fps=6.1 q=31.0 size=   13812kB time=00:00:15.04 bitrate=7521.5kbits/s speed=0.216x    frame=  428 fps=6.1 q=30.0 size=   13812kB time=00:00:15.20 bitrate=7439.5kbits/s speed=0.216x    frame=  432 fps=6.1 q=30.0 size=   13812kB time=00:00:15.37 bitrate=7358.6kbits/s speed=0.216x    frame=  439 fps=6.1 q=30.0 size=   13812kB time=00:00:15.66 bitrate=7221.5kbits/s speed=0.219x    frame=  440 fps=6.1 q=30.0 size=   13812kB time=00:00:15.70 bitrate=7202.7kbits/s speed=0.217x    frame=  448 fps=6.1 q=30.0 size=   13812kB time=00:00:16.04 bitrate=7052.7kbits/s speed=0.219x    frame=  453 fps=6.1 q=30.0 size=   13812kB time=00:00:16.25 bitrate=6962.4kbits/s speed=0.22x    frame=  455 fps=6.1 q=30.0 size=   13812kB time=00:00:16.33 bitrate=6927.1kbits/s speed=0.22x    frame=  460 fps=6.1 q=30.0 size=   13812kB time=00:00:16.54 bitrate=6839.5kbits/s speed=0.221x    frame=  461 fps=6.1 q=30.0 size=   13812kB time=00:00:16.58 bitrate=6822.6kbits/s speed=0.219x    frame=  467 fps=6.1 q=30.0 size=   13812kB time=00:00:16.83 bitrate=6721.3kbits/s speed=0.219x    frame=  474 fps=6.1 q=27.0 size=   13812kB time=00:00:17.12 bitrate=6606.7kbits/s speed=0.221x    frame=  476 fps=6.1 q=30.0 size=   13812kB time=00:00:17.20 bitrate=6574.9kbits/s speed=0.221x    frame=  483 fps=6.2 q=30.0 size=   16306kB time=00:00:17.50 bitrate=7632.5kbits/s speed=0.223x    frame=  484 fps=6.1 q=30.0 size=   16306kB time=00:00:17.54 bitrate=7614.2kbits/s speed=0.222x    frame=  488 fps=6.1 q=30.0 size=   16306kB time=00:00:17.70 bitrate=7542.8kbits/s speed=0.223x    frame=  492 fps=6.1 q=30.0 size=   16306kB time=00:00:17.87 bitrate=7472.4kbits/s speed=0.223x    frame=  496 fps=6.2 q=31.0 size=   16306kB time=00:00:18.04 bitrate=7403.2kbits/s speed=0.224x    frame=  500 fps=6.2 q=31.0 size=   16306kB time=00:00:18.20 bitrate=7335.7kbits/s speed=0.224x    frame=  500 fps=5.7 q=-1.0 Lsize=   19984kB time=00:00:20.70 bitrate=7905.2kbits/s speed=0.235x    
video:19979kB audio:0kB subtitle:0kB other streams:0kB global headers:0kB muxing overhead: 0.024210%
bench: utime=300.968s
bench: maxrss=1821772kB
[libx264 @ 0x40cc120] frame I:8     Avg QP:25.63  size:149500
[libx264 @ 0x40cc120] frame P:269   Avg QP:30.69  size: 50269
[libx264 @ 0x40cc120] frame B:223   Avg QP:29.53  size: 25738
[libx264 @ 0x40cc120] consecutive B-frames: 37.0%  8.4%  6.6% 48.0%
[libx264 @ 0x40cc120] mb I  I16..4: 34.7% 61.9%  3.4%
[libx264 @ 0x40cc120] mb P  I16..4: 24.2% 15.1%  0.2%  P16..4: 25.5%  2.6%  1.2%  0.0%  0.0%    skip:31.1%
[libx264 @ 0x40cc120] mb B  I16..4:  1.2%  1.9%  0.1%  B16..8: 31.5%  2.3%  0.3%  direct: 1.1%  skip:61.6%  L0:41.5% L1:55.6% BI: 2.9%
[libx264 @ 0x40cc120] final ratefactor: 27.61
[libx264 @ 0x40cc120] 8x8 transform intra:40.9% inter:89.6%
[libx264 @ 0x40cc120] direct mvs  spatial:98.7% temporal:1.3%
[libx264 @ 0x40cc120] coded y,uvDC,uvAC intra: 12.4% 24.7% 1.7% inter: 5.0% 6.2% 0.1%
[libx264 @ 0x40cc120] i16 v,h,dc,p: 29% 28%  9% 34%
[libx264 @ 0x40cc120] i8 v,h,dc,ddl,ddr,vr,hd,vl,hu: 14% 11% 36%  6%  7%  7%  8%  5%  7%
[libx264 @ 0x40cc120] i4 v,h,dc,ddl,ddr,vr,hd,vl,hu: 14% 15%  8%  7% 14% 11% 16%  6%  9%
[libx264 @ 0x40cc120] i8c dc,h,v,p: 75% 15%  8%  3%
[libx264 @ 0x40cc120] Weighted P-Frames: Y:1.1% UV:0.7%
[libx264 @ 0x40cc120] ref P L0: 65.8% 17.5%  9.7%  3.5%  2.6%  0.9%
[libx264 @ 0x40cc120] ref B L0: 89.9%  7.1%  2.4%  0.5%
[libx264 @ 0x40cc120] ref B L1: 97.8%  2.2%
[libx264 @ 0x40cc120] kb/s:7855.89
